<svg xmlns="http://www.w3.org/2000/svg" viewBox="0 0 1435 1435" fill="#495a51">
  <g transform="translate(-82,1435) scale(0.09,-0.09)">
    <path d="M9775 13794 c-169 -9 -522 -35 -660 -49 -134 -13 -208 -22 -445 -55
-473 -64 -1109 -216 -1555 -370 -279 -96 -354 -126 -651 -255 -503 -220 -1036
-545 -1474 -899 -601 -485 -1147 -1123 -1513 -1767 -377 -665 -613 -1350 -727
-2114 -38 -261 -44 -353 -45 -740 0 -264 4 -419 13 -480 7 -49 19 -139 28
-200 103 -726 391 -1416 809 -1937 218 -272 546 -552 830 -708 33 -18 69 -39
80 -46 37 -23 309 -141 385 -167 320 -108 624 -157 959 -157 231 1 534 30 771
75 235 45 475 63 605 46 314 -41 499 -159 666 -427 146 -233 262 -357 449
-480 227 -148 365 -205 861 -358 372 -114 511 -174 704 -301 262 -173 460
-396 604 -681 95 -187 170 -419 191 -592 16 -129 68 -210 163 -259 174 -88
376 12 418 206 28 133 -70 540 -201 831 -64 144 -104 216 -196 355 -283 427
-663 728 -1154 913 -103 39 -136 49 -369 113 -239 65 -412 130 -576 216 -162
85 -289 205 -383 361 -115 192 -231 325 -382 438 -346 260 -795 340 -1375 243
-381 -63 -455 -71 -720 -76 -210 -4 -282 -2 -375 11 -259 38 -387 72 -592 160
-462 199 -828 530 -1123 1016 -57 94 -142 258 -184 355 -12 28 -26 59 -31 70
-28 59 -123 336 -153 445 -37 131 -88 388 -108 540 -30 222 -33 724 -5 955 73
629 238 1193 507 1740 541 1100 1431 1998 2552 2575 689 355 1491 600 2382
729 525 76 1158 112 1613 92 441 -20 858 -60 1162 -112 63 -11 139 -24 168
-29 650 -112 1411 -366 1992 -664 835 -428 1549 -1016 2071 -1706 126 -166
349 -502 349 -525 0 -2 19 -35 41 -72 59 -95 208 -405 264 -548 290 -735 373
-1397 260 -2055 -29 -166 -133 -541 -153 -554 -4 -2 -58 33 -119 79 -184 137
-403 262 -609 349 -144 60 -345 125 -499 160 -38 9 -88 21 -110 26 -209 49
-418 70 -742 77 l-292 6 -47 121 c-26 67 -69 177 -97 246 -27 69 -61 154 -74
190 -31 83 -151 389 -163 415 -5 11 -23 56 -40 100 -17 44 -34 89 -39 100 -5
11 -16 38 -24 60 -30 78 -78 200 -87 220 -4 11 -22 56 -40 100 -17 44 -35 89
-40 100 -5 11 -23 56 -40 100 -17 44 -35 89 -39 100 -10 22 -18 42 -116 285
-36 91 -75 184 -86 207 -10 24 -19 45 -19 48 0 12 -123 300 -154 358 -90 174
-195 282 -341 352 -153 73 -271 90 -427 59 -235 -47 -405 -188 -533 -443 -33
-66 -387 -941 -560 -1386 -13 -33 -45 -114 -71 -180 -25 -66 -64 -165 -84
-220 -21 -55 -75 -197 -120 -315 -46 -118 -118 -305 -160 -415 l-76 -200 -644
0 -644 0 -78 205 c-230 603 -393 1024 -452 1175 -24 61 -77 193 -117 295 -39
102 -101 255 -136 340 -36 85 -75 182 -87 215 -38 98 -195 464 -228 529 -116
231 -287 361 -532 406 -187 35 -414 -39 -557 -180 -113 -112 -149 -175 -301
-530 -10 -25 -23 -54 -28 -65 -5 -11 -52 -126 -105 -255 -53 -129 -100 -244
-105 -255 -23 -52 -136 -331 -195 -482 -36 -92 -70 -177 -75 -188 -9 -19 -94
-235 -188 -475 -47 -120 -175 -447 -285 -725 -107 -270 -279 -713 -320 -825
-20 -52 -54 -142 -77 -200 -23 -58 -71 -181 -107 -275 -36 -93 -92 -240 -125
-325 -112 -291 -121 -319 -115 -377 16 -155 125 -253 282 -253 148 0 226 67
298 255 42 109 162 418 222 570 66 165 209 531 272 695 31 80 60 151 66 158 7
9 283 12 1321 12 721 0 1321 -3 1332 -6 17 -4 30 -30 59 -107 21 -56 61 -163
90 -237 29 -74 96 -250 150 -390 54 -140 113 -295 132 -345 19 -49 41 -103 48
-120 8 -16 27 -61 44 -98 81 -183 225 -317 394 -369 103 -31 244 -23 347 20
211 89 310 234 485 707 20 55 60 161 89 235 152 388 176 450 176 454 0 17 94
242 104 248 15 10 2638 10 2651 0 12 -8 27 -44 134 -322 40 -102 90 -228 111
-280 57 -143 180 -459 180 -465 0 -3 9 -24 19 -48 17 -38 39 -94 117 -305 27
-73 28 -75 66 -124 36 -46 108 -87 223 -126 117 -40 206 -47 432 -33 312 21
409 53 736 250 224 134 289 180 504 358 92 76 176 144 185 151 15 12 20 8 44
-30 49 -77 130 -251 148 -318 10 -36 22 -78 27 -94 5 -16 14 -80 21 -143 29
-288 -63 -550 -266 -762 -154 -160 -361 -282 -641 -379 -88 -31 -241 -74 -300
-85 -16 -4 -64 -14 -105 -22 -366 -79 -689 -105 -1545 -125 -695 -17 -984 -62
-1327 -206 -226 -96 -394 -205 -553 -363 -242 -239 -366 -513 -382 -846 -5
-104 -2 -138 20 -250 111 -560 572 -956 1252 -1074 427 -75 884 -38 1295 104
143 50 191 70 333 141 163 82 316 181 351 227 63 82 81 192 50 297 -21 70 -98
149 -168 173 -61 21 -162 22 -209 2 -20 -8 -73 -40 -117 -70 -158 -108 -411
-215 -622 -264 -345 -81 -765 -65 -1050 39 -293 107 -485 303 -535 545 -15 73
-16 95 -5 170 23 157 76 258 201 379 90 89 162 137 296 201 275 130 587 178
1250 190 368 6 629 18 875 40 762 69 1337 238 1758 517 87 57 281 217 317 260
188 228 252 329 316 501 76 202 99 333 99 557 0 329 -73 589 -255 910 -21 37
-35 73 -32 85 3 11 32 92 66 180 115 295 205 648 253 990 29 203 32 730 5 925
-40 290 -60 395 -122 636 -163 635 -458 1267 -850 1818 -38 54 -77 108 -85
120 -37 54 -256 320 -326 397 -488 529 -1000 939 -1614 1295 -138 79 -523 277
-640 328 -375 165 -644 262 -1050 380 -161 46 -608 150 -760 176 -503 85 -684
108 -1060 136 -186 14 -878 26 -1025 18z m-2042 -3642 c16 -15 34 -40 42 -57
49 -108 71 -159 100 -230 315 -772 343 -843 488 -1215 323 -826 406 -1044 400
-1052 -5 -9 -2217 -11 -2226 -2 -3 3 -2 16 3 27 5 12 75 189 155 392 80 204
150 379 155 390 5 11 32 76 59 145 27 69 87 220 134 335 243 602 325 802 358
872 10 24 19 45 19 49 0 14 124 302 141 325 25 36 77 61 114 54 16 -3 42 -18
58 -33z m4728 16 c38 -26 89 -118 154 -283 9 -22 20 -49 25 -60 13 -29 73
-178 142 -350 32 -82 63 -159 68 -170 31 -70 46 -107 106 -260 36 -93 72 -183
80 -200 7 -16 45 -111 84 -210 39 -99 75 -189 80 -200 10 -23 174 -438 245
-620 25 -66 54 -141 65 -167 10 -25 16 -49 12 -52 -9 -10 -2220 -7 -2226 3 -3
5 17 66 45 137 28 71 63 163 79 204 90 238 357 924 460 1180 43 107 97 242
120 300 23 58 66 164 95 235 30 72 77 186 105 255 73 180 101 231 139 257 43
29 79 29 122 1z m-2015 -3142 c2 -6 -21 -79 -52 -161 -31 -83 -74 -199 -95
-260 -38 -106 -116 -315 -164 -440 -13 -33 -31 -82 -40 -108 -10 -27 -28 -61
-41 -75 -23 -27 -23 -27 -43 -7 -19 20 -38 67 -210 525 -134 356 -171 451
-187 488 -8 18 -12 38 -8 43 9 15 834 11 840 -5z m4304 -12 c104 -13 165 -23
330 -55 59 -11 269 -71 335 -96 104 -39 246 -101 305 -133 36 -19 78 -42 94
-50 50 -26 239 -155 242 -165 2 -6 -38 -44 -88 -85 -542 -446 -664 -520 -901
-556 -119 -18 -184 -8 -244 35 -37 27 -44 43 -147 312 -59 156 -135 354 -168
439 -33 85 -71 184 -85 220 -13 36 -31 81 -40 102 -8 20 -12 41 -8 48 8 13
204 5 375 -16z"/>
  </g>
</svg>
