<svg xmlns="http://www.w3.org/2000/svg" viewBox="0 0 400 480">
  <defs>
    <clipPath id="mask-portrait" clipPathUnits="objectBoundingBox">
      <path d="
        M 0.50,0.04
        C 0.71,0.03  0.90,0.12  0.94,0.30
        C 0.98,0.46  0.96,0.63  0.92,0.77
        C 0.87,0.94  0.70,0.98  0.50,0.97
        C 0.30,0.96  0.13,0.92  0.08,0.76
        C 0.02,0.58  0.04,0.40  0.08,0.24
        C 0.13,0.07  0.31,0.04  0.50,0.04
        Z
      "/>
    </clipPath>
  </defs>
  <!-- Usage: <img style="clip-path:url(#mask-portrait); width:400px; height:480px; object-fit:cover"/> -->
  <rect width="400" height="480" fill="#cdd9ca" clip-path="url(#mask-portrait)" opacity="0.4"/>
  <path d="
    M 200,19
    C 284,14  360,58  376,144
    C 392,220  384,302  368,370
    C 348,450  280,470  200,466
    C 120,462   52,444   32,368
    C 8,278    16,160   32,96
    C 52,32   124,22  200,19
    Z
  " fill="none" stroke="#5b8b4b" stroke-width="1.5" opacity="0.5"/>
</svg>
